# xmcd CD database file
#
# Track frame offsets:
#	150
#	12976
#	25189
#	39485
#	53697
#	66538
#	79598
#	97946
#	113740
#	133272
#	153026
#	168623
#	179327
#	195835
#	208190
#	222155
#	236357
#	248462
#	261883
#	274702
#	291141
#
# Disc length: 4015 seconds
#
# Revision: 0
# Processed by: cddbd v1.4PL0 Copyright (c) Steve Scherf et al.
# Submitted via: CDex 1.50beta9
#
DISCID=1d0fad15
DTITLE=CURTIS MAGEE - KILLARNEY IN MY DREANS 18 FAVOURITE
DYEAR=1900
DGENRE=Country
TTITLE0=KILLARNEY IN MY DREAMS
TTITLE1=SEVEN MILES FROM OUR HOUSE
TTITLE2=VILLAGE WHERE I WENT TO SCHOOL
TTITLE3=THE CLOCK IN THE TOWER
TTITLE4=THE GOOD OLD DAYS
TTITLE5=MULROY BAY
TTITLE6=THE OLD RUSTIC BRIDGE
TTITLE7=THE ROSE OF CASTLEREA
TTITLE8=I'LL TAKE YOU HOME AGAIN KATHLEEN
TTITLE9=HOME TO DONEGAL
TTITLE10=FOUR COUNTER ROADS
TTITLE11=THE GYPSY
TTITLE12=MAGGIE
TTITLE13=HORES AND PLOUGH
TTITLE14=HARD TIMES COME AGAIN NO MORE
TTITLE15=AMONG THE WICKLOW HILLS
TTITLE16=GENTIE MOTHER
TTITLE17=GOLDEN DREAMS
TTITLE18=DESTINATION DONEGAL
TTITLE19=THE GIANTS CAUSEWAY
TTITLE20=IRISH RECORDS
EXTD=
EXTT0=
EXTT1=
EXTT2=
EXTT3=
EXTT4=
EXTT5=
EXTT6=
EXTT7=
EXTT8=
EXTT9=
EXTT10=
EXTT11=
EXTT12=
EXTT13=
EXTT14=
EXTT15=
EXTT16=
EXTT17=
EXTT18=
EXTT19=
EXTT20=
PLAYORDER=
